<svg width="512" height="512" xmlns="http://www.w3.org/2000/svg">

 <g>
  <title>Layer 1</title>
  <path id="svg_1" fill="#e2e5e7" d="m128,0c-17.6,0 -32,14.4 -32,32l0,448c0,17.6 14.4,32 32,32l320,0c17.6,0 32,-14.4 32,-32l0,-352l-128,-128l-224,0z"/>
  <path id="svg_2" fill="#b0b7bd" d="m384,128l96,0l-128,-128l0,96c0,17.6 14.4,32 32,32z"/>
  <path id="svg_3" d="m480,224l-96,-96l96,0l0,96z" fill="#cad1d8"/>
  <path id="svg_4" fill="#f15642" d="m416,416c0,8.8 -7.2,16 -16,16l-352,0c-8.8,0 -16,-7.2 -16,-16l0,-160c0,-8.8 7.2,-16 16,-16l352,0c8.8,0 16,7.2 16,16l0,160z"/>
  <path id="svg_6" fill="#cad1d8" d="m400,432l-304,0l0,16l304,0c8.8,0 16,-7.2 16,-16l0,-16c0,8.8 -7.2,16 -16,16z"/>
 </g>
</svg>